<?xml version="1.0" encoding="UTF-8" standalone="no"?>
<!-- Created with Inkscape (http://www.inkscape.org/) -->

<svg
   width="7.6922388mm"
   height="10.169349mm"
   viewBox="0 0 7.6922388 10.169349"
   version="1.1"
   id="svg5"
   xml:space="preserve"
   xmlns="http://www.w3.org/2000/svg"
   xmlns:svg="http://www.w3.org/2000/svg"><defs
     id="defs2" /><g
     id="layer1"
     style="display:inline"
     transform="translate(-111.45573,-123.16355)"><path
       style="display:inline;fill:#b45bff;fill-opacity:1;stroke:#13034b;stroke-width:0.264583;stroke-linecap:round;stroke-linejoin:round;stroke-dasharray:none;stroke-opacity:1;paint-order:markers fill stroke"
       d="m -134.50307,29.368451 v 9.903547 h 7.42766 v -6.941701 l -2.96083,-2.963069 z"
       id="path16-2-7-6-4-6-0-5-8"
       transform="translate(246.09109,93.928603)" /><path
       style="display:inline;fill:none;stroke:#13034b;stroke-width:0.264583;stroke-linecap:square;stroke-linejoin:miter;stroke-dasharray:none;stroke-opacity:1"
       d="m 116.04451,123.34796 v 2.91707 h 2.91985"
       id="path17-9-0-1-7-1-9-9-4" /><path
       id="path7-7-5-2-0"
       style="display:inline;fill:#ffbb71;fill-opacity:1;stroke:none;stroke-width:0.0128841px;stroke-linecap:butt;stroke-linejoin:miter;stroke-opacity:1"
       d="m 114.43734,126.93387 c -0.0795,-0.001 -0.14692,0.0325 -0.20725,0.11633 -0.12721,0.20066 0.0154,0.34896 0.0681,0.3852 0.24312,0.14892 0.98266,0.5939 0.98266,0.5939 h -2.58668 c -0.0928,0 -0.4056,0.0435 -0.44466,0.39774 -0.004,0.36188 0.36217,0.42997 0.36217,0.42997 l 1.67307,0.005 c 0,0 -1.3256,0.83153 -1.59353,1.00039 -0.29371,0.16544 -0.36955,0.2589 -0.41367,0.42359 -0.0377,0.14056 -0.0323,0.35969 0.0622,0.52424 0.3576,0.48096 0.82347,0.11918 0.82347,0.11918 0,0 0.50684,-0.4012 0.74529,-0.58763 0.0436,0.54011 0.10748,0.79188 0.54821,1.35801 0.75245,0.85279 2.19288,1.0606 3.18182,0.1147 0.93448,-0.87454 0.88862,-2.50104 -0.22932,-3.33947 -1.11794,-0.83846 -2.76221,-1.48038 -2.76221,-1.48038 -0.0787,-0.0364 -0.14784,-0.0584 -0.20967,-0.0593 z m 1.66852,1.91954 a 1.3813509,1.3813509 0 0 1 1.38135,1.38137 1.3813509,1.3813509 0 0 1 -1.38135,1.38133 1.3813509,1.3813509 0 0 1 -1.38134,-1.38133 1.3813509,1.3813509 0 0 1 1.38134,-1.38137 z" /><circle
       style="display:inline;fill:#01cdfe;fill-opacity:1;stroke:none;stroke-width:0.0337214;stroke-linecap:round;stroke-linejoin:round;stroke-dasharray:none;paint-order:fill markers stroke"
       id="path6-8-0-6-6"
       cx="116.1039"
       cy="130.23271"
       r="0.96570754" /></g></svg>
