<?xml version="1.0" encoding="UTF-8" standalone="no"?>
<!-- Created with Inkscape (http://www.inkscape.org/) -->

<svg
   width="8.4666662mm"
   height="8.4666834mm"
   viewBox="0 0 8.4666662 8.4666834"
   version="1.1"
   id="svg5"
   xml:space="preserve"
   xmlns="http://www.w3.org/2000/svg"
   xmlns:svg="http://www.w3.org/2000/svg"><defs
     id="defs2" /><g
     id="layer8"
     transform="translate(-64.128387,-194.93179)"><path
       id="path21-2-6"
       style="font-variation-settings:normal;display:inline;vector-effect:none;fill:#d7a4ff;fill-opacity:1;stroke:#13034b;stroke-width:0.529167;stroke-linecap:round;stroke-linejoin:round;stroke-miterlimit:2.6;stroke-dasharray:none;stroke-dashoffset:0;stroke-opacity:1;-inkscape-stroke:none;paint-order:markers fill stroke;stop-color:#000000"
       d="m 68.378254,197.76416 v 2.80086 a 11.463103,11.46238 0 0 1 3.431832,0.56224 3.9687502,3.9687502 0 0 0 0.520382,-1.96215 3.9687502,3.9687502 0 0 0 -0.526066,-1.97352 11.463103,11.46238 0 0 1 -3.426148,0.57257 z" /><path
       id="path59-3"
       style="font-variation-settings:normal;display:inline;vector-effect:none;fill:#d7a4ff;fill-opacity:1;stroke:#13034b;stroke-width:0.529167;stroke-linecap:round;stroke-linejoin:round;stroke-miterlimit:2.6;stroke-dasharray:none;stroke-dashoffset:0;stroke-opacity:1;-inkscape-stroke:none;paint-order:markers fill stroke;stop-color:#000000"
       d="m 68.378254,197.76416 a 11.463103,11.46238 0 0 0 3.426148,-0.57257 3.9687502,3.9687502 0 0 0 -3.426148,-1.99523 z" /><path
       id="path51-2"
       style="font-variation-settings:normal;display:inline;vector-effect:none;fill:#d7a4ff;fill-opacity:1;stroke:#13034b;stroke-width:0.529167;stroke-linecap:round;stroke-linejoin:round;stroke-miterlimit:2.6;stroke-dasharray:none;stroke-dashoffset:0;stroke-opacity:1;-inkscape-stroke:none;paint-order:markers fill stroke;stop-color:#000000"
       d="m 71.810086,201.12726 c -1.108692,-0.36084 -2.26595,-0.55044 -3.431832,-0.56224 v 2.56884 c 1.420633,-0.006 2.729478,-0.77172 3.431832,-2.0066 z" /><path
       id="path50-0"
       style="font-variation-settings:normal;display:inline;vector-effect:none;fill:#d7a4ff;fill-opacity:1;stroke:#13034b;stroke-width:0.529167;stroke-linecap:round;stroke-linejoin:round;stroke-miterlimit:2.6;stroke-dasharray:none;stroke-dashoffset:0;stroke-opacity:1;-inkscape-stroke:none;paint-order:markers fill stroke;stop-color:#000000"
       d="m 68.345181,200.56502 a 11.463103,11.46238 0 0 0 -0.0088,0 11.463103,11.46238 0 0 0 -3.429765,0.54777 3.9687502,3.9687502 0 0 0 3.43855,2.02107 z" /><path
       id="path49-6"
       style="font-variation-settings:normal;display:inline;vector-effect:none;fill:#d7a4ff;fill-opacity:1;stroke:#13034b;stroke-width:0.529167;stroke-linecap:round;stroke-linejoin:round;stroke-miterlimit:2.6;stroke-dasharray:none;stroke-dashoffset:0;stroke-opacity:1;-inkscape-stroke:none;paint-order:markers fill stroke;stop-color:#000000"
       d="m 64.900947,197.22879 a 3.9687502,3.9687502 0 0 0 -0.507979,1.93632 3.9687502,3.9687502 0 0 0 0.513663,1.94768 11.463103,11.46238 0 0 1 3.429765,-0.54777 11.463103,11.46238 0 0 1 0.0088,0 v -2.80086 a 11.463103,11.46238 0 0 1 -0.05064,5.2e-4 11.463103,11.46238 0 0 1 -3.393591,-0.53589 z" /><path
       id="path60-1"
       style="font-variation-settings:normal;display:inline;vector-effect:none;fill:#d7a4ff;fill-opacity:1;stroke:#13034b;stroke-width:0.529167;stroke-linecap:round;stroke-linejoin:round;stroke-miterlimit:2.6;stroke-dasharray:none;stroke-dashoffset:0;stroke-opacity:1;-inkscape-stroke:none;paint-order:markers fill stroke;stop-color:#000000"
       d="m 64.900947,197.22879 a 11.463103,11.46238 0 0 0 3.393591,0.53589 11.463103,11.46238 0 0 0 0.05064,-5.2e-4 v -2.5678 a 3.9687502,3.9687502 0 0 0 -3.444234,2.03243 z" /><path
       id="path48-5"
       style="font-variation-settings:normal;display:inline;vector-effect:none;fill:#d7a4ff;fill-opacity:1;stroke:#13034b;stroke-width:0.529167;stroke-linecap:round;stroke-linejoin:round;stroke-miterlimit:2.6;stroke-dasharray:none;stroke-dashoffset:0;stroke-opacity:1;-inkscape-stroke:none;paint-order:markers fill stroke;stop-color:#000000"
       d="m 68.345181,195.19636 v 7.9375 a 3.9687502,3.9687502 0 0 0 0.01654,0 3.9687502,3.9687502 0 0 0 0.01654,0 v -7.9375 a 3.9687502,3.9687502 0 0 0 -0.01654,0 3.9687502,3.9687502 0 0 0 -0.01654,0 z" /><ellipse
       style="font-variation-settings:normal;display:inline;fill:none;fill-opacity:1;stroke:#13034b;stroke-width:0.593346;stroke-linecap:round;stroke-linejoin:round;stroke-miterlimit:2.6;stroke-dasharray:none;stroke-dashoffset:0;stroke-opacity:1;paint-order:markers fill stroke;stop-color:#000000"
       id="path21-8-2-5"
       cx="68.361778"
       cy="199.1633"
       rx="2.5083296"
       ry="3.9315634" /></g></svg>
