<?xml version="1.0" encoding="UTF-8" standalone="no"?>
<!-- Created with Inkscape (http://www.inkscape.org/) -->

<svg
   width="7.9568224mm"
   height="10.433924mm"
   viewBox="0 0 7.9568224 10.433924"
   version="1.1"
   id="svg5"
   inkscape:version="1.4.2 (ebf0e94, 2025-05-08)"
   sodipodi:docname="port-icons.svg"
   xml:space="preserve"
   xmlns:inkscape="http://www.inkscape.org/namespaces/inkscape"
   xmlns:sodipodi="http://sodipodi.sourceforge.net/DTD/sodipodi-0.dtd"
   xmlns="http://www.w3.org/2000/svg"
   xmlns:svg="http://www.w3.org/2000/svg"><sodipodi:namedview
     id="namedview7"
     pagecolor="#ffffff"
     bordercolor="#666666"
     borderopacity="1.0"
     inkscape:pageshadow="2"
     inkscape:pageopacity="0.0"
     inkscape:pagecheckerboard="0"
     inkscape:document-units="mm"
     showgrid="false"
     inkscape:lockguides="false"
     showguides="false"
     inkscape:guide-bbox="true"
     inkscape:snap-global="true"
     inkscape:zoom="32"
     inkscape:cx="304.48438"
     inkscape:cy="672.92188"
     inkscape:window-width="1920"
     inkscape:window-height="1010"
     inkscape:window-x="0"
     inkscape:window-y="34"
     inkscape:window-maximized="1"
     inkscape:current-layer="layer1"
     inkscape:showpageshadow="2"
     inkscape:deskcolor="#d1d1d1"><inkscape:page
       x="3.2040514e-16"
       y="0"
       width="7.9568219"
       height="10.433924"
       id="page2"
       margin="0"
       bleed="0" /></sodipodi:namedview><defs
     id="defs2"><inkscape:path-effect
       effect="fillet_chamfer"
       id="path-effect17-3-2-9-9-3-6-8"
       is_visible="true"
       lpeversion="1"
       nodesatellites_param="F,0,0,1,0,0.12220793,0,1 @ F,0,0,1,0,0.12220793,0,1 @ F,0,1,1,0,0.04582076,0,1 @ F,0,1,1,0,0.04582076,0,1 @ F,0,0,1,0,0.029690386,0,1"
       radius="0"
       unit="px"
       method="auto"
       mode="F"
       chamfer_steps="1"
       flexible="false"
       use_knot_distance="true"
       apply_no_radius="true"
       apply_with_radius="true"
       only_selected="false"
       hide_knots="false" /></defs><g
     inkscape:label="Layer 1"
     inkscape:groupmode="layer"
     id="layer1"
     style="display:inline"
     transform="translate(-75.260959,-170.79977)"><path
       style="display:inline;fill:#b45bff;fill-opacity:1;stroke:#13034b;stroke-width:0.529167;stroke-linecap:round;stroke-linejoin:round;stroke-dasharray:none;stroke-opacity:1;paint-order:markers fill stroke"
       d="m -134.50307,29.490659 v 9.659131 a 0.12220793,0.12220793 45 0 0 0.12221,0.122208 h 7.25963 a 0.04582076,0.04582076 135 0 0 0.0458,-0.04582 l 0,-6.850059 a 0.11068026,0.11068026 67.510828 0 0 -0.0324,-0.07823 l -2.90745,-2.909655 a 0.07161292,0.07161292 22.502984 0 0 -0.0507,-0.02099 l -4.31493,0.0012 a 0.12224139,0.12224139 134.99216 0 0 -0.12221,0.122241 z"
       id="path16-7-9-0-9-7-6-9"
       sodipodi:nodetypes="cccccc"
       inkscape:path-effect="#path-effect17-3-2-9-9-3-6-8"
       inkscape:original-d="m -134.50307,29.368451 v 9.903547 h 7.42766 v -6.941701 l -2.96083,-2.963069 z"
       transform="translate(210.02861,141.69711)"
       inkscape:export-filename="editeds/file-web-curve-thick.svg"
       inkscape:export-xdpi="96"
       inkscape:export-ydpi="96" /><path
       style="display:inline;fill:none;stroke:#13034b;stroke-width:0.529167;stroke-linecap:round;stroke-linejoin:round;stroke-dasharray:none;stroke-opacity:1"
       d="m 79.982012,171.11646 v 2.91707 h 2.919857"
       id="path17-5-7-4-0-5-1-2"
       sodipodi:nodetypes="ccc" /><path
       style="display:inline;fill:#01cdfe;fill-opacity:1;stroke:none;stroke-width:0.114019;stroke-opacity:1"
       d="m 81.478098,179.52 c -0.615969,0.58345 -2.176605,0.79634 -3.746147,0.43603 1.569097,0.6418 3.73813,0.28059 3.746147,-0.43603 z"
       id="path20" /><path
       style="display:inline;fill:#01cdfe;fill-opacity:1;stroke:none;stroke-width:0.114019;stroke-opacity:1"
       d="m 77.653117,178.99265 c -0.395502,-0.008 -0.652491,0.1697 -0.652491,0.31712 -4.5e-4,0.78388 4.050346,0.74603 4.050346,-0.0553 0,-0.13272 -0.156777,-0.19596 -0.21334,-0.22625 0.330922,0.76606 -3.31234,0.70683 -3.31234,0.25476 0,-0.10285 0.267231,-0.20398 0.515757,-0.15544 l -0.210668,-0.1198 c -0.06191,-0.01 -0.121145,-0.0142 -0.177264,-0.0152 z"
       id="path19" /><path
       style="display:inline;fill:#01cdfe;fill-opacity:1;stroke:none;stroke-width:0.114019;stroke-opacity:1"
       d="m 78.461494,178.68446 c -0.242735,0 -0.399957,0.14965 -0.399957,0.2601 0,0.34026 1.448843,0.37456 2.022947,0.0285 l -0.364773,-0.23204 c -0.428908,0.18127 -1.505852,0.20576 -1.258217,-0.0566 z"
       id="path18" /><path
       style="display:inline;fill:#01cdfe;fill-opacity:1;stroke:none;stroke-width:0.114019;stroke-opacity:1"
       d="m 78.297146,178.09164 c -0.176819,0 -0.440932,0.13673 -0.440932,0.26857 0,0.265 1.333042,0.46943 2.320019,0.082 l -0.341612,-0.20928 c -0.66897,0.21422 -1.902246,0.14563 -1.537475,-0.1412 z"
       id="path15" /><path
       style="display:inline;fill:#01cdfe;fill-opacity:1;stroke:none;stroke-width:0.114019;stroke-opacity:1"
       d="m 78.575958,177.45652 c 0,0 -1.153997,-0.0157 -1.153997,0.31087 0,0.26936 0.941964,0.34105 1.869597,0.25584 0.247317,-0.0227 0.493616,-0.0566 0.720773,-0.10084 0,0 0.288165,-0.1973 0.364772,-0.27079 -0.707275,0.1443 -2.321356,0.16346 -2.321356,0.0388 0,-0.11543 0.520211,-0.23383 0.520211,-0.23383 z"
       id="path14" /><path
       style="display:inline;fill:#01cdfe;fill-opacity:1;stroke-width:0.114019"
       d="m 80.861683,177.45571 c -0.131834,-0.006 -0.278367,0.0378 -0.411092,0.13317 0.260105,-0.0556 0.480127,0.10333 0.480127,0.28684 0,0.41331 -0.597264,0.80391 -0.597264,0.80391 0,0 0.924623,-0.10558 0.924623,-0.78432 0,-0.28059 -0.177264,-0.42935 -0.396394,-0.4396 z"
       id="path13" /><path
       style="display:inline;fill:#ffb196;fill-opacity:1;stroke-width:0.114019"
       d="m 80.556147,175.59355 c 0,0 -1.259553,0.0797 -1.323689,0.88588 -0.0285,0.35898 0.330923,0.55049 0.341612,0.81193 0.0081,0.2129 -0.215122,0.39061 -0.215122,0.39061 0,0 0.404857,-0.0762 0.531792,-0.40174 0.140297,-0.36121 -0.272131,-0.60796 -0.23071,-0.89701 0.04008,-0.27659 0.896117,-0.78967 0.896117,-0.78967 z"
       id="path11"
       sodipodi:nodetypes="ccccccc" /><path
       style="display:inline;fill:#ffb196;fill-opacity:1;stroke-width:0.114019"
       d="m 79.602575,174.58831 c 0.313551,0.72554 -1.125047,1.1736 -1.258217,1.77843 -0.122928,0.55495 0.853806,1.20031 0.854252,1.20031 -0.148314,-0.22982 -0.255653,-0.41955 -0.404412,-0.7772 -0.251643,-0.60483 1.531684,-1.15177 0.808377,-2.20154 z"
       id="path1-09-0" /></g></svg>
