<?xml version="1.0" encoding="UTF-8" standalone="no"?>
<!-- Created with Inkscape (http://www.inkscape.org/) -->

<svg
   width="7.6922388mm"
   height="10.169358mm"
   viewBox="0 0 7.6922388 10.169358"
   version="1.1"
   id="svg5"
   xml:space="preserve"
   xmlns="http://www.w3.org/2000/svg"
   xmlns:svg="http://www.w3.org/2000/svg"><defs
     id="defs2" /><g
     id="layer1"
     style="display:inline"
     transform="translate(-129.60619,-112.22956)"><path
       style="display:inline;fill:#b45bff;fill-opacity:1;stroke:#13034b;stroke-width:0.264583;stroke-linecap:round;stroke-linejoin:round;stroke-dasharray:none;stroke-opacity:1;paint-order:markers fill stroke"
       d="m -134.50307,29.368451 v 9.903547 h 7.42766 v -6.941701 l -2.96083,-2.963069 z"
       id="path16-2-7-6-4-6-0-5"
       transform="translate(264.24156,82.994611)" /><path
       style="display:inline;fill:none;stroke:#13034b;stroke-width:0.264583;stroke-linecap:square;stroke-linejoin:miter;stroke-dasharray:none;stroke-opacity:1"
       d="m 134.19498,112.41397 v 2.91707 h 2.91985"
       id="path17-9-0-1-7-1-9-9" /><path
       id="path4-7-1-2-5-4-0-1-6-3"
       style="display:inline;fill:#fffb96;fill-opacity:1;stroke:none;stroke-width:0.0563942;stroke-linecap:butt;stroke-linejoin:miter;stroke-dasharray:none;stroke-opacity:1"
       d="m 134.85227,117.39025 0.0233,0.63562 c 0,0.21827 -0.0318,0.37785 -0.17621,0.55604 -0.14443,0.17819 -0.42194,0.21704 -0.60875,0.21704 h -1.25574 c -0.24631,0 -0.44819,0.0582 -0.57826,0.17673 -0.12034,0.10965 -0.20929,0.35632 -0.20929,0.46096 v 0.57619 0.49816 l 0.65991,0.85731 1.31671,0.0165 0.66198,-0.61753 v -0.54881 l -1.32912,-0.005 v -0.18861 h 1.83452 l 0.81648,-0.65061 v -1.32498 l -0.73484,-0.65888 z m -0.75189,3.14193 a 0.24353898,0.24056898 0 0 1 0.24339,0.24029 0.24353898,0.24056898 0 0 1 -0.24339,0.24082 0.24353898,0.24056898 0 0 1 -0.2434,-0.24082 0.24353898,0.24056898 0 0 1 0.2434,-0.24029 z" /><path
       id="path4-7-1-2-5-4-8-5-7-6-6"
       style="display:inline;fill:#01cdfe;fill-opacity:1;stroke:none;stroke-width:0.0563942;stroke-linecap:butt;stroke-linejoin:miter;stroke-dasharray:none;stroke-opacity:1"
       d="m 132.93197,116.24355 -0.66197,0.61702 v 0.5488 l 1.32911,0.005 v 0.18862 h -1.83451 l -0.81649,0.6506 v 1.32499 l 0.73484,0.65887 h 0.3638 l 0.0176,-0.63562 c 0,-0.21827 0.0478,-0.37733 0.19224,-0.55552 0.14443,-0.17819 0.42246,-0.21756 0.60927,-0.21756 h 1.25522 c 0.24631,0 0.44819,-0.0582 0.57826,-0.17673 0.12034,-0.10965 0.20929,-0.3558 0.20929,-0.46044 v -0.57671 -0.49816 l -0.6594,-0.85731 z m -0.0765,0.37104 a 0.24353898,0.24056898 0 0 1 0.24391,0.24081 0.24353898,0.24056898 0 0 1 -0.24391,0.24029 0.24353898,0.24056898 0 0 1 -0.2434,-0.24029 0.24353898,0.24056898 0 0 1 0.2434,-0.24081 z" /></g></svg>
