<?xml version="1.0" encoding="UTF-8" standalone="no"?>
<!-- Created with Inkscape (http://www.inkscape.org/) -->

<svg
   width="138.23645mm"
   height="172.77815mm"
   viewBox="0 0 138.23645 172.77815"
   version="1.1"
   id="svg5"
   xml:space="preserve"
   xmlns="http://www.w3.org/2000/svg"
   xmlns:svg="http://www.w3.org/2000/svg"><defs
     id="defs2" /><g
     id="layer16"
     transform="translate(-7.2911056,309.03858)"><path
       id="rect14"
       style="display:inline;fill:#d6c9dd;stroke:#13034b;stroke-width:1.05833;stroke-linecap:square;stroke-dasharray:none;stroke-opacity:1;paint-order:fill markers stroke"
       d="M 18.710674,-198.70209 H 134.1983 l 10.37025,22.67043 a 0.24598944,0.24598944 122.70949 0 1 -0.2237,0.34832 H 7.9187949 a 0.51093371,0.51093371 58.394654 0 1 -0.4560952,-0.74122 z"
       transform="translate(0.41193799)" /><rect
       style="display:inline;fill:#d6c9dd;stroke:#13034b;stroke-width:1.05833;stroke-linecap:square;stroke-dasharray:none;stroke-opacity:1;paint-order:fill markers stroke"
       id="rect8-5-2"
       width="101.65132"
       height="13.553525"
       x="25.122684"
       y="-199.69199" /><path
       id="rect37108"
       style="display:inline;opacity:1;fill:#d6c9dd;fill-opacity:1;stroke:#13034b;stroke-width:1.05833;stroke-linecap:round;stroke-miterlimit:2.6;stroke-dasharray:none;stroke-opacity:1;paint-order:fill markers stroke"
       d="M 10.740734,-308.50939 H 140.26322 V -199.4477 H 10.740734 Z" /><rect
       style="display:inline;fill:#c1bfe7;fill-opacity:1;stroke:#13034b;stroke-width:0.992068;stroke-linecap:square;stroke-dasharray:none;stroke-opacity:1;paint-order:fill markers stroke"
       id="rect15"
       width="11.311053"
       height="9.3266783"
       x="108.26055"
       y="-211.70255" /><rect
       style="display:inline;fill:#c1bfe7;fill-opacity:1;stroke:#13034b;stroke-width:1.05833;stroke-linecap:square;stroke-dasharray:none;stroke-opacity:1;paint-order:fill markers stroke"
       id="rect8-5-9"
       width="102.987"
       height="79.555313"
       x="24.013247"
       y="-293.8295" /><rect
       style="display:inline;fill:#d6c9dd;stroke:#13034b;stroke-width:1.05833;stroke-linecap:square;stroke-dasharray:none;stroke-opacity:1;paint-order:fill markers stroke"
       id="rect13"
       width="137.05417"
       height="38.893749"
       x="7.8202715"
       y="-175.68333" /><rect
       style="font-variation-settings:normal;display:inline;fill:#c1bfe7;fill-opacity:1;stroke:#13034b;stroke-width:1.32292;stroke-linecap:square;stroke-linejoin:miter;stroke-miterlimit:4;stroke-dasharray:none;stroke-dashoffset:0;stroke-opacity:1;paint-order:fill markers stroke;stop-color:#000000"
       id="rect15-3"
       width="61.730129"
       height="8.1520042"
       x="78.742294"
       y="-166.44286" /><rect
       style="display:inline;fill:#c1bfe7;fill-opacity:1;stroke:#13034b;stroke-width:1.32292;stroke-linecap:square;stroke-dasharray:none;stroke-opacity:1;paint-order:fill markers stroke"
       id="rect15-3-4"
       width="61.730129"
       height="8.1520042"
       x="78.742294"
       y="-152.43066" /><rect
       style="display:inline;fill:#c1bfe7;fill-opacity:1;stroke:#13034b;stroke-width:1.00957;stroke-linecap:square;stroke-dasharray:none;stroke-opacity:1;paint-order:fill markers stroke"
       id="rect15-3-2"
       width="50.451881"
       height="2.1654246"
       x="12.958537"
       y="-152.51257" /><rect
       style="display:inline;fill:#c1bfe7;fill-opacity:1;stroke:#13034b;stroke-width:0.79375;stroke-linecap:square;stroke-dasharray:none;stroke-opacity:1;paint-order:fill markers stroke"
       id="rect15-3-2-23"
       width="6.1607594"
       height="2.7755833"
       x="12.955324"
       y="-165.81068" /><rect
       style="display:inline;fill:#c1bfe7;fill-opacity:1;stroke:#13034b;stroke-width:1.00957;stroke-linecap:square;stroke-dasharray:none;stroke-opacity:1;paint-order:fill markers stroke"
       id="rect15-3-2-1"
       width="50.451881"
       height="2.1654246"
       x="12.958537"
       y="-147.70598" /><rect
       style="display:inline;fill:#c1bfe7;fill-opacity:1;stroke:#13034b;stroke-width:1.00957;stroke-linecap:square;stroke-dasharray:none;stroke-opacity:1;paint-order:fill markers stroke"
       id="rect15-3-2-2"
       width="50.451881"
       height="2.1654246"
       x="12.958537"
       y="-142.89938" /><path
       id="rect37100"
       style="font-variation-settings:normal;opacity:1;fill:#ffffff;fill-opacity:1;fill-rule:nonzero;stroke:#000000;stroke-width:1.48267;stroke-linecap:square;stroke-linejoin:miter;stroke-miterlimit:4;stroke-dasharray:none;stroke-dashoffset:0;stroke-opacity:1;paint-order:fill markers stroke"
       d="m 88.634441,-253.59918 -2.298125,2.29814 16.662024,16.66204 -22.515088,12.99881 1.625146,2.81474 23.269162,-13.43434 12.09473,12.09473 2.29813,-2.29813 -11.47908,-11.47907 11.95053,-6.89961 -1.62514,-2.81475 -12.70459,7.33514 z" /><path
       id="path37101"
       style="font-variation-settings:normal;opacity:1;fill:#e9f358;fill-opacity:1;fill-rule:nonzero;stroke:#000000;stroke-width:1.34511;stroke-linecap:square;stroke-linejoin:miter;stroke-miterlimit:4;stroke-dasharray:none;stroke-dashoffset:0;stroke-opacity:1;paint-order:fill markers stroke"
       d="m 37.440896,-288.54715 c -5.774336,-1.9e-4 -10.455408,4.68089 -10.455225,10.45522 9.1e-5,3.67464 1.929315,7.07945 5.081466,8.96808 -1.243491,3.11178 -1.882296,6.43211 -1.882205,9.78314 2e-4,14.55951 11.803163,26.36216 26.362665,26.36198 14.559232,-2e-4 26.361771,-11.80273 26.361972,-26.36198 -1.01e-4,-2.18101 -0.270858,-4.35359 -0.806065,-6.46793 3.445676,-1.80432 5.604901,-5.37226 5.604956,-9.26176 1.84e-4,-5.77407 -4.680465,-10.45502 -10.454531,-10.45522 -2.887078,-3e-5 -5.645652,1.19381 -7.621852,3.29854 -3.984513,-2.27803 -8.494737,-3.4763 -13.08448,-3.47629 -3.517736,-9e-5 -6.999913,0.70386 -10.241385,2.07035 -1.910355,-3.0568 -5.260657,-4.91392 -8.865316,-4.91413 z" /><circle
       style="font-variation-settings:normal;opacity:1;fill:#e9f358;fill-opacity:1;fill-rule:nonzero;stroke:#000000;stroke-width:1.34511;stroke-linecap:round;stroke-linejoin:miter;stroke-miterlimit:2.6;stroke-dasharray:none;stroke-dashoffset:0;stroke-opacity:1;paint-order:fill markers stroke"
       id="path37102"
       cx="-257.85443"
       cy="15.74648"
       r="16.253359"
       transform="rotate(106.07231)" /><path
       id="path37103"
       style="opacity:1;fill:#e9f358;stroke:#000000;stroke-width:1.21502;stroke-linecap:round;stroke-miterlimit:2.6;stroke-dasharray:none;paint-order:fill markers stroke"
       d="m 38.88984,-277.33296 c -2.512441,2.86542 -4.31598,5.54926 -6.040686,4.15277 -2.961742,-2.39813 -3.15157,-6.87207 -0.639133,-9.73747 2.512439,-2.86544 7.177005,-3.46173 9.737496,-0.63917 1.255598,1.38411 -0.545234,3.35845 -3.057677,6.22387 z" /><path
       id="path37103-0"
       style="fill:#e9f358;stroke:#000000;stroke-width:1.21502;stroke-linecap:round;stroke-miterlimit:2.6;stroke-dasharray:none;paint-order:fill markers stroke"
       d="m 76.181275,-274.03817 c 2.512441,2.86542 4.315981,5.54926 6.040686,4.15277 2.961742,-2.39813 3.15157,-6.87207 0.639133,-9.73748 -2.512438,-2.86543 -7.177005,-3.46172 -9.737496,-0.63916 -1.255598,1.38411 0.545234,3.35845 3.057677,6.22387 z" /><path
       style="fill:#000000;fill-opacity:1;stroke:#000000;stroke-width:0.355473px;stroke-linecap:butt;stroke-linejoin:miter;stroke-opacity:1"
       d="m 51.346498,-264.89388 c -0.271009,0.92535 3.690105,3.94722 5.211284,3.94569 1.52118,-10e-4 5.7182,-3.09483 5.42651,-4.04463 -0.291694,-0.9498 -10.366787,-0.8264 -10.637794,0.0989 z"
       id="path37104" /><circle
       style="font-variation-settings:normal;opacity:1;fill:#000000;fill-opacity:1;fill-rule:nonzero;stroke:#000000;stroke-width:1.06642;stroke-linecap:round;stroke-linejoin:miter;stroke-miterlimit:2.6;stroke-dasharray:none;stroke-dashoffset:0;stroke-opacity:1;paint-order:fill markers stroke"
       id="path37105"
       cx="43.766941"
       cy="-271.47147"
       r="2.2936392" /><circle
       style="font-variation-settings:normal;fill:#000000;fill-opacity:1;fill-rule:nonzero;stroke:#000000;stroke-width:1.06642;stroke-linecap:round;stroke-linejoin:miter;stroke-miterlimit:2.6;stroke-dasharray:none;stroke-dashoffset:0;stroke-opacity:1;paint-order:fill markers stroke"
       id="path37105-2"
       cx="69.460434"
       cy="-270.81012"
       r="2.2936392" /></g></svg>
